<svg width="192" height="192" viewBox="0 0 192 192" xmlns="http://www.w3.org/2000/svg">
  <!-- Background Circle -->
  <circle cx="96" cy="96" r="88" fill="#2563EB" stroke="#1D4ED8" stroke-width="4"/>
  
  <!-- Family Icons (4 people) -->
  <g fill="white" opacity="0.9">
    <!-- Person 1 - Andrea -->
    <circle cx="60" cy="60" r="12"/>
    <path d="M48 85 Q48 75 60 75 Q72 75 72 85 L72 95 Q72 100 60 100 Q48 100 48 95 Z"/>
    
    <!-- Person 2 - Sasha -->
    <circle cx="132" cy="60" r="12"/>
    <path d="M120 85 Q120 75 132 75 Q144 75 144 85 L144 95 Q144 100 132 100 Q120 100 120 95 Z"/>
    
    <!-- Person 3 - Matti -->
    <circle cx="60" cy="120" r="12"/>
    <path d="M48 145 Q48 135 60 135 Q72 135 72 145 L72 155 Q72 160 60 160 Q48 160 48 155 Z"/>
    
    <!-- Person 4 - Vlad -->
    <circle cx="132" cy="120" r="12"/>
    <path d="M120 145 Q120 135 132 135 Q144 135 144 145 L144 155 Q144 160 132 160 Q120 160 120 155 Z"/>
  </g>
  
  <!-- Activity Icons in Center -->
  <g fill="white" opacity="0.8">
    <!-- House icon (household) -->
    <path d="M88 88 L96 80 L104 88 L104 100 L88 100 Z" stroke="white" stroke-width="1"/>
    <rect x="92" y="92" width="8" height="8" fill="#2563EB"/>
    
    <!-- Heart icon (health) -->
    <path d="M95 94 C93 92 90 92 90 95 C90 92 87 92 85 94 C83 96 85 99 90 102 C95 99 97 96 95 94" transform="translate(12, 6)"/>
  </g>
  
  <!-- Border ring -->
  <circle cx="96" cy="96" r="88" fill="none" stroke="white" stroke-width="2" opacity="0.3"/>
</svg>