<svg width="512" height="512" viewBox="0 0 512 512" fill="none" xmlns="http://www.w3.org/2000/svg">
  <!-- Background with modern gradient -->
  <rect width="512" height="512" rx="112" fill="url(#gradient)" />
  
  <!-- Central checkmark circle representing completion -->
  <circle cx="256" cy="256" r="120" fill="white" opacity="0.15" />
  <circle cx="256" cy="256" r="95" fill="white" opacity="0.25" />
  
  <!-- Large checkmark in center -->
  <path d="M200 255 L235 290 L312 213" stroke="white" stroke-width="16" stroke-linecap="round" stroke-linejoin="round" fill="none" opacity="0.9" />
  
  <!-- Activity category icons around the edge -->
  <g opacity="0.8">
    <!-- Household (top) - house icon -->
    <g transform="translate(256, 95)">
      <path d="M-20,5 L0,-15 L20,5 L20,25 L-20,25 Z" fill="white" />
      <rect x="-5" y="15" width="10" height="10" fill="#4f46e5" />
    </g>
    
    <!-- Health (top-right) - heart icon -->
    <g transform="translate(385, 160)">
      <path d="M-10,-5 C-10,-10 -5,-10 0,-5 C5,-10 10,-10 10,-5 C10,2 0,12 0,12 C0,12 -10,2 -10,-5 Z" fill="white" />
    </g>
    
    <!-- Creative (right) - brush icon -->
    <g transform="translate(417, 256)">
      <path d="M-15,-15 L15,15 M-10,-15 L15,10 M-15,-10 L10,15" stroke="white" stroke-width="5" stroke-linecap="round" />
      <circle cx="10" cy="10" r="5" fill="white" />
    </g>
    
    <!-- Learning (bottom-right) - book icon -->
    <g transform="translate(385, 352)">
      <rect x="-12" y="-8" width="24" height="16" rx="2" fill="white" />
      <line x1="-8" y1="-3" x2="8" y2="-3" stroke="#4f46e5" stroke-width="2" />
      <line x1="-8" y1="3" x2="8" y2="3" stroke="#4f46e5" stroke-width="2" />
    </g>
    
    <!-- Helping (bottom) - hands icon -->
    <g transform="translate(256, 417)">
      <path d="M-15,5 C-15,0 -10,0 -10,5 L-10,10 C-10,15 -5,15 0,15 C5,15 10,15 10,10 L10,5 C10,0 15,0 15,5 L15,15 L-15,15 Z" fill="white" />
    </g>
    
    <!-- Play (left) - game controller icon -->
    <g transform="translate(95, 256)">
      <rect x="-15" y="-8" width="30" height="16" rx="8" fill="white" />
      <circle cx="-8" cy="0" r="3" fill="#4f46e5" />
      <circle cx="8" cy="0" r="3" fill="#4f46e5" />
    </g>
  </g>
  
  <!-- Four larger dots representing family members -->
  <g opacity="0.6">
    <circle cx="256" cy="65" r="8" fill="white" />
    <circle cx="447" cy="256" r="8" fill="white" />
    <circle cx="256" cy="447" r="8" fill="white" />
    <circle cx="65" cy="256" r="8" fill="white" />
  </g>
  
  <!-- Progress rings around the center -->
  <circle cx="256" cy="256" r="140" stroke="white" stroke-width="3" fill="none" opacity="0.3" stroke-dasharray="10 5" />
  
  <defs>
    <linearGradient id="gradient" x1="0%" y1="0%" x2="100%" y2="100%">
      <stop offset="0%" style="stop-color:#4f46e5;stop-opacity:1" />
      <stop offset="50%" style="stop-color:#7c3aed;stop-opacity:1" />
      <stop offset="100%" style="stop-color:#ec4899;stop-opacity:1" />
    </linearGradient>
  </defs>
</svg>